<svg xmlns="http://www.w3.org/2000/svg" xmlns:xlink="http://www.w3.org/1999/xlink" width="500" zoomAndPan="magnify" viewBox="0 0 375 374.999991" height="500" preserveAspectRatio="xMidYMid meet" version="1.0"><defs><g/></defs><rect x="-37.5" width="450" fill="#ffffff" y="-37.499999" height="449.999989" fill-opacity="1"/><rect x="-37.5" width="450" fill="#161513" y="-37.499999" height="449.999989" fill-opacity="1"/><g fill="#ffffff" fill-opacity="1"><g transform="translate(114.18886, 263.443326)"><g><path d="M 140.367188 -84.992188 C 141.839844 -84.257812 142.515625 -83.308594 142.390625 -82.140625 C 142.269531 -80.976562 141.472656 -79.71875 140 -78.371094 C 138.652344 -77.265625 137.484375 -77.113281 136.503906 -77.910156 C 135.523438 -78.707031 135.523438 -79.78125 136.503906 -81.128906 C 135.402344 -81.867188 133.621094 -82.449219 131.167969 -82.878906 C 128.71875 -83.308594 126.171875 -83.644531 123.535156 -83.890625 C 120.898438 -84.136719 118.78125 -84.320312 117.1875 -84.441406 C 116.820312 -83.339844 115.871094 -80.730469 114.335938 -76.625 C 112.804688 -72.515625 111.023438 -67.578125 109 -61.8125 C 106.976562 -56.050781 104.894531 -50.007812 102.746094 -43.691406 C 100.601562 -37.375 98.730469 -31.429688 97.136719 -25.847656 C 95.542969 -20.265625 94.4375 -15.605469 93.824219 -11.867188 C 93.210938 -8.125 93.394531 -6.007812 94.375 -5.519531 C 95.601562 -5.519531 96.246094 -5.027344 96.308594 -4.046875 C 96.367188 -3.066406 96 -2.117188 95.203125 -1.195312 C 94.40625 -0.277344 93.332031 0.183594 91.984375 0.183594 C 89.898438 0.183594 88.703125 -1.226562 88.398438 -4.046875 C 88.089844 -6.867188 88.425781 -10.640625 89.410156 -15.363281 C 90.390625 -20.082031 91.800781 -25.449219 93.640625 -31.457031 C 95.480469 -37.46875 97.535156 -43.632812 99.804688 -49.949219 C 102.070312 -56.265625 104.371094 -62.425781 106.703125 -68.4375 C 109.03125 -74.445312 111.117188 -79.84375 112.957031 -84.625 C 107.804688 -84.871094 101.796875 -85.054688 94.929688 -85.175781 C 88.058594 -85.300781 81.160156 -85.332031 74.230469 -85.269531 C 67.300781 -85.207031 61.261719 -85.117188 56.109375 -84.992188 C 54.640625 -81.191406 52.828125 -76.59375 50.683594 -71.195312 C 48.539062 -65.800781 46.175781 -60.035156 43.601562 -53.902344 C 41.023438 -47.769531 38.386719 -41.667969 35.691406 -35.597656 C 32.992188 -29.527344 30.355469 -23.886719 27.78125 -18.671875 C 25.203125 -13.460938 22.875 -9.136719 20.789062 -5.703125 C 18.949219 -2.636719 17.109375 -1.105469 15.269531 -1.105469 C 13.429688 -1.105469 12.9375 -2.699219 13.796875 -5.886719 C 16.617188 -15.699219 18.550781 -24.898438 19.59375 -33.480469 C 20.636719 -42.066406 20.082031 -49.886719 17.9375 -56.9375 C 15.789062 -63.992188 11.222656 -70.09375 4.230469 -75.242188 C 1.164062 -77.328125 0.121094 -79.261719 1.105469 -81.039062 C 2.085938 -82.816406 4.660156 -84.320312 8.832031 -85.546875 C 11.527344 -86.28125 14.808594 -86.925781 18.671875 -87.476562 C 22.535156 -88.027344 26.582031 -88.488281 30.816406 -88.855469 C 35.046875 -89.226562 39.0625 -89.53125 42.863281 -89.777344 C 46.667969 -90.023438 49.855469 -90.207031 52.429688 -90.328125 C 53.65625 -93.515625 55.253906 -97.871094 57.214844 -103.390625 C 59.175781 -108.910156 61.230469 -114.980469 63.378906 -121.601562 C 65.523438 -128.226562 67.425781 -134.820312 69.082031 -141.378906 C 70.734375 -147.941406 71.902344 -153.980469 72.574219 -159.5 C 73.25 -165.019531 73.097656 -169.464844 72.117188 -172.839844 C 71.132812 -176.210938 69.050781 -177.898438 65.859375 -177.898438 C 62.425781 -177.898438 58.6875 -176.519531 54.640625 -173.757812 C 50.589844 -171 46.511719 -167.441406 42.40625 -163.089844 C 38.296875 -158.734375 34.433594 -154.105469 30.816406 -149.199219 C 27.195312 -144.292969 24.128906 -139.664062 21.617188 -135.308594 C 19.101562 -130.957031 17.476562 -127.367188 16.742188 -124.546875 C 17.84375 -124.300781 18.273438 -123.6875 18.027344 -122.707031 C 17.785156 -121.726562 17.171875 -120.804688 16.1875 -119.949219 C 15.207031 -119.089844 14.042969 -118.722656 12.695312 -118.84375 C 10.976562 -118.964844 10.546875 -120.5625 11.40625 -123.628906 C 12.265625 -126.691406 14.042969 -130.617188 16.742188 -135.402344 C 19.4375 -140.183594 22.75 -145.210938 26.675781 -150.488281 C 30.601562 -155.761719 34.894531 -160.757812 39.554688 -165.480469 C 44.214844 -170.203125 48.875 -174.035156 53.535156 -176.976562 C 58.195312 -179.921875 62.550781 -181.394531 66.597656 -181.394531 C 70.765625 -181.394531 73.679688 -179.828125 75.335938 -176.703125 C 76.992188 -173.574219 77.757812 -169.34375 77.636719 -164.007812 C 77.511719 -158.671875 76.777344 -152.753906 75.425781 -146.253906 C 74.078125 -139.753906 72.390625 -133.101562 70.367188 -126.292969 C 68.34375 -119.488281 66.230469 -112.988281 64.019531 -106.792969 C 61.8125 -100.601562 59.851562 -95.171875 58.132812 -90.511719 C 67.699219 -90.757812 77.023438 -90.820312 86.097656 -90.695312 C 95.171875 -90.574219 104.679688 -90.082031 114.613281 -89.226562 C 116.085938 -93.273438 118.078125 -98.484375 120.589844 -104.863281 C 123.105469 -111.238281 125.710938 -118.109375 128.410156 -125.464844 C 131.109375 -132.824219 133.652344 -140 136.046875 -146.992188 C 138.4375 -153.980469 140.335938 -160.054688 141.746094 -165.203125 C 143.160156 -170.355469 143.742188 -173.910156 143.496094 -175.875 C 141.902344 -174.769531 140.675781 -174.800781 139.816406 -175.964844 C 138.957031 -177.132812 139.265625 -178.386719 140.734375 -179.738281 C 142.332031 -181.085938 144.109375 -181.792969 146.070312 -181.851562 C 148.035156 -181.914062 148.953125 -180.414062 148.832031 -177.347656 C 148.707031 -175.261719 148.035156 -172.042969 146.808594 -167.6875 C 145.582031 -163.332031 144.015625 -158.304688 142.117188 -152.601562 C 140.214844 -146.898438 138.128906 -140.921875 135.859375 -134.664062 C 133.59375 -128.410156 131.355469 -122.308594 129.144531 -116.359375 C 126.9375 -110.410156 124.945312 -105.046875 123.167969 -100.261719 C 121.390625 -95.480469 119.949219 -91.679688 118.84375 -88.855469 C 120.191406 -88.734375 122.246094 -88.519531 125.007812 -88.214844 C 127.765625 -87.90625 130.617188 -87.476562 133.5625 -86.925781 C 136.503906 -86.375 138.773438 -85.730469 140.367188 -84.992188 Z M 23.363281 -21.707031 C 28.269531 -31.765625 33.023438 -42.222656 37.621094 -53.074219 C 42.222656 -63.929688 46.484375 -74.507812 50.40625 -84.808594 C 48.445312 -84.808594 45.441406 -84.71875 41.394531 -84.535156 C 37.34375 -84.351562 32.992188 -84.074219 28.332031 -83.707031 C 23.671875 -83.339844 19.316406 -82.878906 15.269531 -82.324219 C 11.222656 -81.773438 8.15625 -81.070312 6.070312 -80.210938 C 11.34375 -76.039062 15.636719 -71.347656 18.949219 -66.136719 C 22.261719 -60.925781 24.375 -54.730469 25.296875 -47.554688 C 26.214844 -40.382812 25.570312 -31.765625 23.363281 -21.707031 Z M 23.363281 -21.707031 "/></g></g></g></svg>